ffprobe version n2.6.1 Copyright (c) 2007-2015 the FFmpeg developers
  built with gcc 4.8 (Ubuntu 4.8.2-19ubuntu1)
  configuration: --prefix=/opt/ffmpeg --extra-cflags=-I/opt/ffmpeg/include --extra-ldflags=-L/opt/ffmpeg/lib --extra-libs=-ldl --enable-gpl --enable-libass --enable-libfdk-aac --enable-libfreetype --enable-libmp3lame --enable-libtheora --enable-libvorbis --enable-libvpx --enable-libx264 --enable-libx265 --enable-nonfree
  libavutil      54. 20.100 / 54. 20.100
  libavcodec     56. 26.100 / 56. 26.100
  libavformat    56. 25.101 / 56. 25.101
  libavdevice    56.  4.100 / 56.  4.100
  libavfilter     5. 11.102 /  5. 11.102
  libswscale      3.  1.101 /  3.  1.101
  libswresample   1.  1.100 /  1.  1.100
  libpostproc    53.  3.100 / 53.  3.100
Input #0, mpeg, from 'popeye_patriotic_popeye.mpeg':
  Duration: 00:06:03.01, start: 861.644300, bitrate: 3582 kb/s
    Stream #0:0[0x1bf]: Data: dvd_nav_packet
    Stream #0:1[0x1e0]: Video: mpeg2video (Main), yuv420p(tv, smpte170m), 720x480 [SAR 8:9 DAR 4:3], max. 7000 kb/s, 29.97 fps, 29.97 tbr, 90k tbn, 59.94 tbc
    Stream #0:2[0x80]: Audio: ac3, 48000 Hz, stereo, fltp, 192 kb/s
Unsupported codec with id 1145979222 for input stream 0
